<svg width="97" height="100" viewBox="0 0 97 100" fill="none" xmlns="http://www.w3.org/2000/svg">
<g clip-path="url(#clip0_110_2)">
<rect x="43.2" y="66.4" width="11" height="16.5" fill="#BF0A30"/>
<path d="M40.3628 68.5308C42.2693 66.5497 44.1894 65.5356 46.1229 65.4885C45.0215 66.6036 44.283 67.7249 43.9074 68.8525C43.5318 69.9802 43.3664 71.4604 43.411 73.2932C43.4316 74.1391 43.8189 75.354 44.5729 76.9377C45.3269 78.5215 46.0814 79.9189 46.8364 81.1298C47.5914 82.3407 47.9682 82.916 47.9667 82.8556C48.0021 82.6532 48.0511 82.39 48.1138 82.066C48.1764 81.7421 48.3427 81.1233 48.6127 80.2099C48.8826 79.2964 49.1893 78.4426 49.5327 77.6482C49.8761 76.8539 50.3646 76.0157 50.998 75.1337C51.6315 74.2517 52.325 73.5597 53.0786 73.0577C53.6932 72.6397 54.0092 71.9619 54.0267 71.0244C54.0441 70.0868 53.8494 69.1243 53.4424 68.1366C53.0355 67.149 52.5291 66.2191 51.9235 65.3472C53.0111 65.3207 54.8119 66.4457 57.326 68.7222C58.1704 69.4674 58.8008 70.3186 59.2171 71.2758C59.6334 72.233 59.8508 73.0943 59.8695 73.8596C59.9009 75.1486 59.5761 76.5017 58.8952 77.9189C58.2143 79.3361 57.2827 80.5932 56.1002 81.6901C55.0956 82.6416 54.2886 83.6387 53.6792 84.6813C53.0698 85.7239 52.6856 86.7057 52.5266 87.6265C52.3677 88.5473 52.3141 89.4505 52.3659 90.3359C52.4177 91.2214 52.573 92.0136 52.8319 92.7127C53.0908 93.4117 53.3477 94.0302 53.6026 94.5681C53.8575 95.106 54.0891 95.5135 54.2974 95.7906L54.6106 96.2364C54.3463 96.1421 53.9952 95.9995 53.5572 95.8086C53.1193 95.6178 52.2727 95.195 51.0173 94.5404C49.762 93.8858 48.5714 93.1994 47.4455 92.4811C46.3196 91.7629 45.0877 90.8306 43.7498 89.6843C42.412 88.5379 41.3051 87.3608 40.4293 86.1528C39.2199 84.4894 38.2839 82.6733 37.6213 80.7044C36.9587 78.7354 36.6384 76.9648 36.6606 75.3923C36.6812 74.5857 36.9512 73.6722 37.4705 72.652C37.9898 71.6317 38.4937 70.8082 38.9822 70.1817C39.4708 69.5551 39.931 69.0048 40.3628 68.5308Z" fill="#CE5C17"/>
</g>
<path d="M52.8389 62.2112V71.9075H45.0819V66.0897H43.1427C41.5997 66.0897 40.1199 65.4768 39.0289 64.3857C37.9379 63.2947 37.3249 61.8149 37.3249 60.272V54.4542C37.3249 53.9399 37.5292 53.4466 37.8929 53.0829C38.2566 52.7193 38.7499 52.515 39.2642 52.515C39.7785 52.515 40.2718 52.7193 40.6354 53.0829C40.9991 53.4466 41.2034 53.9399 41.2034 54.4542V60.272C41.2034 61.3579 42.0761 62.2112 43.1427 62.2112H45.0819V42.8187C45.0819 41.79 45.4906 40.8035 46.2179 40.0762C46.9453 39.3488 47.9318 38.9402 48.9604 38.9402C49.9891 38.9402 50.9756 39.3488 51.703 40.0762C52.4303 40.8035 52.8389 41.79 52.8389 42.8187V58.3327H54.7782C55.2925 58.3327 55.7858 58.1284 56.1495 57.7647C56.5131 57.401 56.7174 56.9078 56.7174 56.3935V52.515C56.7174 52.0006 56.9218 51.5074 57.2854 51.1437C57.6491 50.78 58.1424 50.5757 58.6567 50.5757C59.171 50.5757 59.6643 50.78 60.028 51.1437C60.3916 51.5074 60.596 52.0006 60.596 52.515V56.3935C60.596 57.9364 59.983 59.4162 58.892 60.5072C57.8009 61.5983 56.3212 62.2112 54.7782 62.2112H52.8389Z" fill="#FED700"/>
<rect x="50.2727" y="26.8334" width="10.8135" height="8.075" fill="#BF0A30"/>
<path d="M54.9886 33.5847C55.1296 33.5847 55.2662 33.562 55.389 33.5165L55.1888 34.9136H53.9919L54.6973 33.5529C54.7929 33.5756 54.8884 33.5847 54.9886 33.5847ZM35.8298 20.3329C36.4032 20.3329 36.9584 20.4011 37.4908 20.524C38.4647 18.7765 40.3259 17.5979 42.4648 17.5979C42.7788 17.5979 43.0837 17.6252 43.3841 17.6707C44.995 14.1484 48.5447 11.7046 52.6631 11.7046C57.7736 11.7046 62.0059 15.4635 62.7476 20.3693C66.4383 20.7288 69.319 23.837 69.319 27.6232C69.319 31.6461 66.0606 34.909 62.0377 34.9136H59.7623L59.1616 33.6576C60.3539 33.2798 61.1321 32.3378 60.941 31.4368C60.7316 30.4538 59.4483 29.8941 58.0694 30.1853C57.0273 30.4083 56.2309 31.0545 55.9988 31.7826C55.8929 31.6109 55.745 31.469 55.5691 31.3702C55.3931 31.2715 55.1949 31.2192 54.9931 31.2183H54.984C55.0204 31.0727 55.0386 30.9225 55.0386 30.7678C55.0386 29.8531 54.3651 29.0977 53.4868 28.9657V27.8098C53.4868 27.6096 53.323 27.4457 53.1227 27.4457C52.9225 27.4457 52.7587 27.6096 52.7587 27.8098V29.0067C52.5493 29.0613 52.3582 29.1523 52.1853 29.2706L51.2979 28.2967C51.1614 28.1466 50.9338 28.1375 50.7836 28.274C50.6335 28.4105 50.6244 28.638 50.7609 28.7882L51.671 29.7894L51.6801 29.7985C51.478 30.1175 51.3801 30.4914 51.3999 30.8685C51.4198 31.2456 51.5564 31.6072 51.7909 31.9032C52.0254 32.1992 52.3462 32.4149 52.7087 32.5205C53.0713 32.6261 53.4577 32.6163 53.8145 32.4926C53.8327 32.7474 53.9328 32.9795 54.0875 33.1661L53.1774 34.9136H35.6432V34.909C31.7068 34.8089 28.544 31.587 28.544 27.6232C28.544 23.5958 31.8069 20.3329 35.8298 20.3329ZM56.8407 33.5483L57.0364 34.9136H55.926L56.1945 33.025C56.3538 33.2343 56.5722 33.4118 56.8407 33.5483ZM35.939 13.8799C35.939 14.4592 35.7089 15.0148 35.2992 15.4245C34.8896 15.8341 34.334 16.0642 33.7546 16.0642C33.1753 16.0642 32.6197 15.8341 32.21 15.4245C31.8004 15.0148 31.5702 14.4592 31.5702 13.8799C31.5702 13.3005 31.8004 12.7449 32.21 12.3353C32.6197 11.9256 33.1753 11.6955 33.7546 11.6955C34.334 11.6955 34.8896 11.9256 35.2992 12.3353C35.7089 12.7449 35.939 13.3005 35.939 13.8799ZM38.9289 16.6695C38.9289 16.8129 38.9006 16.9549 38.8457 17.0875C38.7908 17.22 38.7104 17.3404 38.609 17.4418C38.5075 17.5432 38.3871 17.6237 38.2546 17.6785C38.1221 17.7334 37.9801 17.7617 37.8367 17.7617C37.6932 17.7617 37.5512 17.7334 37.4187 17.6785C37.2862 17.6237 37.1658 17.5432 37.0644 17.4418C36.963 17.3404 36.8825 17.22 36.8276 17.0875C36.7727 16.9549 36.7445 16.8129 36.7445 16.6695C36.7445 16.5261 36.7727 16.384 36.8276 16.2515C36.8825 16.119 36.963 15.9986 37.0644 15.8972C37.1658 15.7958 37.2862 15.7153 37.4187 15.6604C37.5512 15.6056 37.6932 15.5773 37.8367 15.5773C37.9801 15.5773 38.1221 15.6056 38.2546 15.6604C38.3871 15.7153 38.5075 15.7958 38.609 15.8972C38.7104 15.9986 38.7908 16.119 38.8457 16.2515C38.9006 16.384 38.9289 16.5261 38.9289 16.6695ZM58.4244 33.8077L58.9523 34.9136H57.7691L57.6098 33.7895C57.8692 33.8259 58.1423 33.835 58.4244 33.8077Z" fill="#002868"/>
<defs>
<clipPath id="clip0_110_2">
<rect width="23.271" height="30.9455" fill="white" transform="translate(60.4118 96.0951) rotate(178.605)"/>
</clipPath>
</defs>
</svg>
