<svg width="145" height="150" viewBox="0 0 145 150" fill="none" xmlns="http://www.w3.org/2000/svg">
				<g clip-path="url(#clip0_111_2)">
				<rect x="65.7101" y="103.04" width="17.0698" height="25.6047" fill="#BF0A30"/>
				<path d="M61.3073 106.346C64.2659 103.272 67.2454 101.698 70.2458 101.625C68.5367 103.356 67.3907 105.096 66.8079 106.846C66.225 108.595 65.9682 110.892 66.0375 113.737C66.0695 115.049 66.6705 116.934 67.8406 119.392C69.0107 121.85 70.1815 124.018 71.3531 125.897C72.5247 127.777 73.1094 128.669 73.1071 128.575C73.162 128.261 73.238 127.853 73.3352 127.35C73.4324 126.848 73.6905 125.887 74.1095 124.47C74.5284 123.052 75.0043 121.727 75.5372 120.495C76.0701 119.262 76.828 117.961 77.8111 116.593C78.7941 115.224 79.8703 114.15 81.0397 113.371C81.9934 112.722 82.4838 111.671 82.5109 110.216C82.538 108.761 82.2358 107.267 81.6043 105.735C80.9727 104.202 80.187 102.759 79.2472 101.406C80.9349 101.365 83.7295 103.111 87.6308 106.643C88.9412 107.8 89.9194 109.121 90.5654 110.606C91.2114 112.091 91.5489 113.428 91.5778 114.616C91.6265 116.616 91.1226 118.716 90.066 120.915C89.0093 123.114 87.5636 125.065 85.7286 126.767C84.1697 128.243 82.9174 129.791 81.9717 131.409C81.026 133.027 80.4298 134.55 80.1832 135.979C79.9365 137.408 79.8534 138.809 79.9337 140.184C80.0141 141.558 80.2552 142.787 80.6569 143.872C81.0586 144.957 81.4572 145.916 81.8528 146.751C82.2485 147.586 82.6079 148.218 82.9311 148.648L83.417 149.34C83.0069 149.193 82.462 148.972 81.7825 148.676C81.1029 148.38 79.7891 147.724 77.841 146.708C75.893 145.692 74.0454 144.627 72.2982 143.512C70.551 142.398 68.6394 140.951 66.5633 139.172C64.4872 137.393 62.7696 135.567 61.4105 133.692C59.5338 131.111 58.0813 128.293 57.053 125.237C56.0248 122.182 55.5278 119.434 55.5622 116.994C55.5943 115.742 56.0132 114.325 56.819 112.741C57.6248 111.158 58.4068 109.88 59.1649 108.908C59.9231 107.936 60.6372 107.082 61.3073 106.346Z" fill="#CE5C17"/>
				</g>
				<path d="M80.6678 96.5395V111.586H68.6305V102.558H65.6211C63.2268 102.558 60.9305 101.607 59.2374 99.9139C57.5443 98.2208 56.5931 95.9245 56.5931 93.5301V84.5021C56.5931 83.704 56.9102 82.9386 57.4746 82.3742C58.0389 81.8098 58.8044 81.4928 59.6025 81.4928C60.4006 81.4928 61.166 81.8098 61.7304 82.3742C62.2948 82.9386 62.6118 83.704 62.6118 84.5021V93.5301C62.6118 95.2154 63.966 96.5395 65.6211 96.5395H68.6305V66.4461C68.6305 64.8499 69.2646 63.319 70.3933 62.1903C71.522 61.0615 73.0529 60.4274 74.6492 60.4274C76.2454 60.4274 77.7763 61.0615 78.905 62.1903C80.0337 63.319 80.6678 64.8499 80.6678 66.4461V90.5208H83.6772C84.4753 90.5208 85.2407 90.2037 85.8051 89.6394C86.3694 89.075 86.6865 88.3096 86.6865 87.5115V81.4928C86.6865 80.6947 87.0036 79.9292 87.5679 79.3649C88.1323 78.8005 88.8977 78.4834 89.6958 78.4834C90.494 78.4834 91.2594 78.8005 91.8238 79.3649C92.3881 79.9292 92.7052 80.6947 92.7052 81.4928V87.5115C92.7052 89.9058 91.754 92.2021 90.0609 93.8952C88.3679 95.5883 86.0715 96.5395 83.6772 96.5395H80.6678Z" fill="#FED700"/>
				<rect x="76.6855" y="41.6401" width="16.7803" height="12.5308" fill="#BF0A30"/>
				<path d="M84.0035 52.1169C84.2224 52.1169 84.4343 52.0816 84.6249 52.011L84.3142 54.179H82.4569L83.5515 52.0675C83.6998 52.1028 83.8481 52.1169 84.0035 52.1169ZM54.2729 31.5526C55.1627 31.5526 56.0242 31.6585 56.8504 31.8492C58.3617 29.1374 61.25 27.3084 64.5691 27.3084C65.0564 27.3084 65.5295 27.3508 65.9956 27.4214C68.4955 21.9555 74.0038 18.1632 80.3949 18.1632C88.3254 18.1632 94.893 23.9964 96.0441 31.6091C101.771 32.167 106.241 36.9903 106.241 42.8658C106.241 49.1085 101.185 54.1719 94.9424 54.179H91.4114L90.4793 52.2299C92.3295 51.6437 93.5371 50.1819 93.2405 48.7837C92.9156 47.2583 90.9242 46.3897 88.7844 46.8416C87.1672 47.1877 85.9314 48.1905 85.5712 49.3204C85.4069 49.0539 85.1774 48.8336 84.9043 48.6804C84.6312 48.5272 84.3237 48.4461 84.0106 48.4447H83.9964C84.0529 48.2187 84.0812 47.9857 84.0812 47.7456C84.0812 46.3261 83.036 45.1539 81.6731 44.9491V43.1553C81.6731 42.8446 81.4188 42.5904 81.1081 42.5904C80.7974 42.5904 80.5432 42.8446 80.5432 43.1553V45.0126C80.2183 45.0974 79.9217 45.2386 79.6534 45.4222L78.2763 43.911C78.0644 43.6779 77.7113 43.6638 77.4783 43.8756C77.2453 44.0875 77.2311 44.4406 77.443 44.6736L78.8554 46.2273L78.8695 46.2414C78.5558 46.7364 78.4039 47.3166 78.4347 47.9018C78.4655 48.487 78.6775 49.0481 79.0414 49.5075C79.4053 49.9668 79.903 50.3016 80.4656 50.4654C81.0283 50.6293 81.6279 50.6141 82.1815 50.422C82.2098 50.8175 82.3651 51.1777 82.6052 51.4672L81.1929 54.179H53.9833V54.1719C47.8748 54.0165 42.9667 49.0167 42.9667 42.8658C42.9667 36.616 48.0301 31.5526 54.2729 31.5526ZM86.8777 52.0604L87.1814 54.179H85.4583L85.8749 51.2483C86.1221 51.5731 86.461 51.8485 86.8777 52.0604ZM54.4423 21.5388C54.4423 22.4378 54.0852 23.3 53.4495 23.9357C52.8138 24.5714 51.9516 24.9285 51.0526 24.9285C50.1536 24.9285 49.2914 24.5714 48.6557 23.9357C48.02 23.3 47.6629 22.4378 47.6629 21.5388C47.6629 20.6398 48.02 19.7776 48.6557 19.1419C49.2914 18.5062 50.1536 18.1491 51.0526 18.1491C51.9516 18.1491 52.8138 18.5062 53.4495 19.1419C54.0852 19.7776 54.4423 20.6398 54.4423 21.5388ZM59.082 25.8678C59.082 26.0903 59.0382 26.3107 58.953 26.5164C58.8678 26.722 58.743 26.9088 58.5856 27.0662C58.4282 27.2236 58.2414 27.3484 58.0358 27.4336C57.8301 27.5188 57.6097 27.5626 57.3872 27.5626C57.1646 27.5626 56.9442 27.5188 56.7386 27.4336C56.5329 27.3484 56.3461 27.2236 56.1887 27.0662C56.0313 26.9088 55.9065 26.722 55.8213 26.5164C55.7361 26.3107 55.6923 26.0903 55.6923 25.8678C55.6923 25.6452 55.7361 25.4248 55.8213 25.2192C55.9065 25.0136 56.0313 24.8267 56.1887 24.6693C56.3461 24.5119 56.5329 24.3871 56.7386 24.3019C56.9442 24.2168 57.1646 24.1729 57.3872 24.1729C57.6097 24.1729 57.8301 24.2168 58.0358 24.3019C58.2414 24.3871 58.4282 24.5119 58.5856 24.6693C58.743 24.8267 58.8678 25.0136 58.953 25.2192C59.0382 25.4248 59.082 25.6452 59.082 25.8678ZM89.3352 52.4629L90.1544 54.179H88.3183L88.0712 52.4347C88.4737 52.4912 88.8974 52.5053 89.3352 52.4629Z" fill="#002868"/>
				<defs>
				<clipPath id="clip0_111_2">
				<rect width="36.112" height="48.0213" fill="white" transform="translate(92.4194 149.121) rotate(178.605)"/>
				</clipPath>
				</defs>
				</svg>